<svg id="mermaid-1615390852873" width="100%" xmlns="http://www.w3.org/2000/svg" height="465" style="max-width: 248.859375px;" viewBox="0 0 248.859375 465"><style>#mermaid-1615390852873{font-family:"trebuchet ms",verdana,arial,sans-serif;font-size:16px;fill:#ccc;}#mermaid-1615390852873 .error-icon{fill:#a44141;}#mermaid-1615390852873 .error-text{fill:#ddd;stroke:#ddd;}#mermaid-1615390852873 .edge-thickness-normal{stroke-width:2px;}#mermaid-1615390852873 .edge-thickness-thick{stroke-width:3.5px;}#mermaid-1615390852873 .edge-pattern-solid{stroke-dasharray:0;}#mermaid-1615390852873 .edge-pattern-dashed{stroke-dasharray:3;}#mermaid-1615390852873 .edge-pattern-dotted{stroke-dasharray:2;}#mermaid-1615390852873 .marker{fill:lightgrey;stroke:lightgrey;}#mermaid-1615390852873 .marker.cross{stroke:lightgrey;}#mermaid-1615390852873 svg{font-family:"trebuchet ms",verdana,arial,sans-serif;font-size:16px;}#mermaid-1615390852873 .entityBox{fill:#1f2020;stroke:#81B1DB;}#mermaid-1615390852873 .attributeBoxOdd{fill:#ffffff;stroke:#81B1DB;}#mermaid-1615390852873 .attributeBoxEven{fill:#f2f2f2;stroke:#81B1DB;}#mermaid-1615390852873 .relationshipLabelBox{fill:hsl(20,1.5873015873%,12.3529411765%);opacity:0.7;background-color:hsl(20,1.5873015873%,12.3529411765%);}#mermaid-1615390852873 .relationshipLabelBox rect{opacity:0.5;}#mermaid-1615390852873 .relationshipLine{stroke:lightgrey;}#mermaid-1615390852873:root{--mermaid-font-family:"trebuchet ms",verdana,arial,sans-serif;}#mermaid-1615390852873 er{fill:apa;}</style><g></g><defs><marker id="ONLY_ONE_START" refX="0" refY="9" markerWidth="18" markerHeight="18" orient="auto"><path stroke="gray" fill="none" d="M9,0 L9,18 M15,0 L15,18"></path></marker></defs><defs><marker id="ONLY_ONE_END" refX="18" refY="9" markerWidth="18" markerHeight="18" orient="auto"><path stroke="gray" fill="none" d="M3,0 L3,18 M9,0 L9,18"></path></marker></defs><defs><marker id="ZERO_OR_ONE_START" refX="0" refY="9" markerWidth="30" markerHeight="18" orient="auto"><circle stroke="gray" fill="white" cx="21" cy="9" r="6"></circle><path stroke="gray" fill="none" d="M9,0 L9,18"></path></marker></defs><defs><marker id="ZERO_OR_ONE_END" refX="30" refY="9" markerWidth="30" markerHeight="18" orient="auto"><circle stroke="gray" fill="white" cx="9" cy="9" r="6"></circle><path stroke="gray" fill="none" d="M21,0 L21,18"></path></marker></defs><defs><marker id="ONE_OR_MORE_START" refX="18" refY="18" markerWidth="45" markerHeight="36" orient="auto"><path stroke="gray" fill="none" d="M0,18 Q 18,0 36,18 Q 18,36 0,18 M42,9 L42,27"></path></marker></defs><defs><marker id="ONE_OR_MORE_END" refX="27" refY="18" markerWidth="45" markerHeight="36" orient="auto"><path stroke="gray" fill="none" d="M3,9 L3,27 M9,18 Q27,0 45,18 Q27,36 9,18"></path></marker></defs><defs><marker id="ZERO_OR_MORE_START" refX="18" refY="18" markerWidth="57" markerHeight="36" orient="auto"><circle stroke="gray" fill="white" cx="48" cy="18" r="6"></circle><path stroke="gray" fill="none" d="M0,18 Q18,0 36,18 Q18,36 0,18"></path></marker></defs><defs><marker id="ZERO_OR_MORE_END" refX="39" refY="18" markerWidth="57" markerHeight="36" orient="auto"><circle stroke="gray" fill="white" cx="9" cy="18" r="6"></circle><path stroke="gray" fill="none" d="M21,18 Q39,0 57,18 Q39,36 21,18"></path></marker></defs><path class="er relationshipLine" d="M112.85714285714286,95L105.71428571428572,103.33333333333333C98.57142857142857,111.66666666666667,84.28571428571429,128.33333333333334,77.14285714285715,145C70,161.66666666666666,70,178.33333333333334,70,186.66666666666666L70,195" stroke="gray" fill="none" marker-end="url(#ZERO_OR_MORE_END)" marker-start="url(#ONLY_ONE_START)"></path><path class="er relationshipLine" d="M70,270L70,278.3333333333333C70,286.6666666666667,70,303.3333333333333,77.14285714285715,320C84.28571428571429,336.6666666666667,98.57142857142857,353.3333333333333,105.71428571428572,361.6666666666667L112.85714285714286,370" stroke="gray" fill="none" marker-end="url(#ZERO_OR_MORE_END)" marker-start="url(#ONLY_ONE_START)"></path><path class="er relationshipLine" d="M177.14285714285714,95L184.2857142857143,103.33333333333333C191.42857142857142,111.66666666666667,205.7142857142857,128.33333333333334,212.85714285714286,151.25C220,174.16666666666666,220,203.33333333333334,220,232.5C220,261.6666666666667,220,290.8333333333333,212.85714285714286,313.75C205.7142857142857,336.6666666666667,191.42857142857142,353.3333333333333,184.2857142857143,361.6666666666667L177.14285714285714,370" stroke="gray" fill="none" marker-end="url(#ZERO_OR_MORE_END)" marker-start="url(#ONE_OR_MORE_START)"></path><g id="USER" transform="translate(95,20 )"><rect class="er entityBox" fill="honeydew" fill-opacity="100%" stroke="gray" x="0" y="0" width="100" height="75"></rect><text class="er entityLabel" id="entity-USER" x="0" y="0" dominant-baseline="middle" text-anchor="middle" style="font-family: &quot;trebuchet ms&quot;, verdana, arial, sans-serif;; font-size: 12px" transform="translate(50,37.5)">USER</text></g><g id="POST" transform="translate(20,195 )"><rect class="er entityBox" fill="honeydew" fill-opacity="100%" stroke="gray" x="0" y="0" width="100" height="75"></rect><text class="er entityLabel" id="entity-POST" x="0" y="0" dominant-baseline="middle" text-anchor="middle" style="font-family: &quot;trebuchet ms&quot;, verdana, arial, sans-serif;; font-size: 12px" transform="translate(50,37.5)">POST</text></g><g id="UPDOOT" transform="translate(95,370 )"><rect class="er entityBox" fill="honeydew" fill-opacity="100%" stroke="gray" x="0" y="0" width="100" height="75"></rect><text class="er entityLabel" id="entity-UPDOOT" x="0" y="0" dominant-baseline="middle" text-anchor="middle" style="font-family: &quot;trebuchet ms&quot;, verdana, arial, sans-serif;; font-size: 12px" transform="translate(50,37.5)">UPDOOT</text></g><rect class="er relationshipLabelBox" x="66.02779388427734" y="133.11778259277344" width="26.796875" height="14.015625" fill="white" fill-opacity="85%"></rect><text class="er relationshipLabel" id="rel1" x="79.42623138427734" y="140.12559509277344" text-anchor="middle" dominant-baseline="middle" style="font-family: &quot;trebuchet ms&quot;, verdana, arial, sans-serif;; font-size: 12px">owns</text><rect class="er relationshipLabelBox" x="70.55928039550781" y="317.8664855957031" width="17.734375" height="14.015625" fill="white" fill-opacity="85%"></rect><text class="er relationshipLabel" id="rel2" x="79.42646789550781" y="324.8742980957031" text-anchor="middle" dominant-baseline="middle" style="font-family: &quot;trebuchet ms&quot;, verdana, arial, sans-serif;; font-size: 12px">has</text><rect class="er relationshipLabelBox" x="211.140625" y="225.49220275878906" width="17.71875" height="14.015625" fill="white" fill-opacity="85%"></rect><text class="er relationshipLabel" id="rel3" x="220" y="232.50001525878906" text-anchor="middle" dominant-baseline="middle" style="font-family: &quot;trebuchet ms&quot;, verdana, arial, sans-serif;; font-size: 12px">has</text></svg>